<?xml version="1.0" standalone="no"?>
<!DOCTYPE svg PUBLIC "-//W3C//DTD SVG 20010904//EN"
 "http://www.w3.org/TR/2001/REC-SVG-20010904/DTD/svg10.dtd">
<svg version="1.0" xmlns="http://www.w3.org/2000/svg"
 width="900.000000pt" height="900.000000pt" viewBox="0 0 900.000000 900.000000"
 preserveAspectRatio="xMidYMid meet">
<metadata>
Created by potrace 1.16, written by Peter Selinger 2001-2019
</metadata>
<g transform="translate(0.000000,900.000000) scale(0.100000,-0.100000)"
fill="#000000" stroke="none">
<path d="M4305 7273 c-537 -74 -943 -307 -1247 -716 -176 -238 -303 -567 -339
-877 -16 -143 -6 -395 21 -524 57 -271 172 -518 348 -751 60 -79 239 -262 327
-335 73 -60 280 -200 296 -200 5 0 -12 30 -37 68 -266 387 -214 926 124 1284
379 402 1064 411 1692 22 488 -302 860 -820 971 -1353 47 -230 47 -525 -1
-772 -63 -329 -231 -667 -456 -924 -98 -111 -94 -111 83 12 500 345 877 849
1067 1428 101 310 143 604 133 945 -15 516 -159 988 -433 1417 -437 683 -1142
1140 -1944 1258 -124 18 -198 23 -365 22 -115 0 -223 -2 -240 -4z"/>
<path d="M2955 6816 c-404 -271 -733 -648 -951 -1091 -180 -367 -269 -727
-281 -1135 -7 -251 6 -416 52 -645 84 -420 257 -799 524 -1150 88 -115 351
-385 460 -470 692 -543 1603 -747 2316 -518 703 225 1193 882 1222 1638 16
406 -104 779 -360 1125 -86 116 -282 314 -395 399 -88 67 -241 165 -248 159
-2 -2 13 -26 32 -54 91 -125 159 -307 173 -460 35 -388 -141 -769 -453 -975
-165 -109 -328 -158 -554 -166 -181 -7 -285 5 -458 52 -555 152 -1064 585
-1329 1130 -113 233 -168 435 -187 687 -14 181 -2 387 32 548 67 325 234 661
450 908 45 50 78 92 73 92 -4 0 -57 -34 -118 -74z"/>
</g>
</svg>
